/* XPM */
static char *output_64[] = {
/* columns rows colors chars-per-pixel */
"64 64 131 2 ",
"   c #17140F",
".  c #171510",
"X  c #1A1711",
"o  c #1D1A15",
"O  c #211D16",
"+  c #211E18",
"@  c #25221C",
"#  c #2A251E",
"$  c #292620",
"%  c #2D2A24",
"&  c #322D25",
"*  c #332F28",
"=  c #3A3127",
"-  c #35312A",
";  c #3A352C",
":  c #3F382F",
">  c #3B3731",
",  c #3E3932",
"<  c #41372C",
"1  c #42392E",
"2  c #493E2F",
"3  c #433D34",
"4  c #493F32",
"5  c #443F38",
"6  c #464037",
"7  c #4B4136",
"8  c #464139",
"9  c #4B443C",
"0  c #4F483F",
"q  c #504537",
"w  c #514639",
"e  c #544A3E",
"r  c #594D3E",
"t  c #4A4640",
"y  c #4E4941",
"u  c #534C43",
"i  c #594E41",
"p  c #534F48",
"a  c #575047",
"s  c #5B5145",
"d  c #565149",
"f  c #5C544B",
"g  c #5F584F",
"h  c #5C5750",
"j  c #5E5951",
"k  c #625546",
"l  c #675847",
"z  c #61574B",
"x  c #63594D",
"c  c #6A5C4D",
"v  c #645C53",
"b  c #695E52",
"n  c #70604F",
"m  c #676057",
"M  c #6B6155",
"N  c #676159",
"B  c #6C645B",
"V  c #6F685F",
"C  c #716454",
"Z  c #776857",
"A  c #7A6A57",
"S  c #71665A",
"D  c #74695D",
"F  c #7A6C5C",
"G  c #6D6760",
"H  c #6F6961",
"J  c #746C63",
"K  c #7A6F62",
"L  c #746F68",
"P  c #777067",
"I  c #7C7165",
"U  c #777069",
"Y  c #7C746B",
"T  c #7B7670",
"R  c #7F7871",
"E  c #82715E",
"W  c #827465",
"Q  c #877867",
"!  c #8B7965",
"~  c #82776A",
"^  c #84796D",
"/  c #8A7C6C",
"(  c #847C73",
")  c #897E72",
"_  c #837F79",
"`  c #878077",
"'  c #8C8175",
"]  c #87817A",
"[  c #8D847B",
"{  c #918475",
"}  c #92867A",
"|  c #94897D",
" . c #9A8C7D",
".. c #8D8780",
"X. c #8E8881",
"o. c #958C83",
"O. c #998E82",
"+. c #968F88",
"@. c #979087",
"#. c #9C9185",
"$. c #97918A",
"%. c #9C948B",
"&. c #9F988F",
"*. c #9D9791",
"=. c #9F9892",
"-. c #A19486",
";. c #A79887",
":. c #A2968A",
">. c #A4998D",
",. c #A89B8D",
"<. c #A49C93",
"1. c #A99E93",
"2. c #A59F99",
"3. c #ABA196",
"4. c #A6A099",
"5. c #ACA49B",
"6. c #B2A495",
"7. c #B1A69B",
"8. c #B3A99E",
"9. c #B8AB9E",
"0. c #ADA7A0",
"q. c #AFA8A2",
"w. c #B3ABA4",
"e. c #B4AEA8",
"r. c #BAB0A6",
"t. c #B7B1AB",
"y. c #BAB3AB",
"u. c #BCB6B1",
"i. c #BEB8B3",
"p. c #C6C0BA",
"a. c #CDC7C1",
/* pixels */
"S M F S M S F x i 3 { {  . .{ / ' #.{  .{ 2 5 ] >.4.[ y #.#.|  .#.#.` ' ~ C e m v & C Z E F W W K Q Q Q Q { / 8 j U ) [ [ [ } ) ",
"S D D C F S B K f 3 /  .-.;.,.6.3.O. . .A ; j Y [ @.R y | { { [  .^ ~ ^ ~ z 0 a f # s C n n l C A l k r k Z k , L Y J D Y ^ [ ) ",
"C K F S I ~ D I M 3 Q { { -. .} Q F  .{ C : J P Y ( B a  .#.-. .} Y ~ ' D s 0 g m ; # - = = = 2 2 = ; q r 4 1 : P ` ( L B v M ~ ",
"z x b C J ( ( ` J ; M Q ! ! / / D Z W F k > P ) o.} j 6 {  .' { D B J Y M 7 * f m , 9 R P B 0 : c K ! ' A n l ; g N j y 5 , , y ",
"u 3 u u i v f a 8 # 4 s k c l l x r w w 7 - M Y B 9 - - f 7 < ; = 3 9 6 6 % ; 8 9 % y ` Y G 9 i ! / { Q A k 1 - f M D B I v 6 9 ",
"3 * % - ; y H v u d V g f f 1 # & s i a d d 8 8 g N R ( H J 6 * S ' | ~ P B ] H v N d > > t t h B a 3 u f s s } 2.>.>.o.^ C / ;.",
"! F a ) [ %.:.) ~ ' ^ ^ ) ) ^ 5 B 1.3.3.o.O.#.| @.<.7.4.5.>.g z #.1.;.' ` ( #.%.<.5.%.R ..*.=.=.<.] 9 / E ! { 7.-.o.| #.-.I { ,.",
" .E K o.) ) D s I  .` D z B D u o.6.7.7.8.3.5.3.7.t.7.#.} #.V D 1.9.3.{ ' B %.7.5.4.=.=.0.q.q.4.o.U * c A F W 6.7.>.;.,.-.c ^ 6.",
"{ F Y o.P D x g D ' ` D D ^ y 6 >.>.;.,.3.3.<.<.<.3.<.[ | >.^ R 6.4.%.{ H a g L R X.$.=.$.X.] Y j d @ ; 7 7 x [ ;.#. .;.#.i B 6.",
"A 6 g o.:.o.P M B S J ) ' ) y v 7.,.#.,.;.,.#.O.{ ^ #.} %.>.P Y >.^ D Y B , + - , % h G B y , 6 d J U ( B -   @ q M b b Q 8 3 / ",
"# O U %.o.#.@.) ^ D K ^ ~ Y a ` 9.6.,.-. .#.#.-.#.Y / | [ ^ i v [ ^ D v f - 6 o.( j *.%.=.o.f H 5.q.4.w.t.u - h 9 f f y 9 @ @ 3 ",
"M 9 ( >.%.>.>.#.o.[ | ` ^ M , D | { ~ ~ [ } ' ) ~ M z M x 9 : 6 m B g a 8 @ m ` P p ] ..X.] P ` %.<.=.%.o.f Y o.} =.2.+.H 5 f f ",
"Y 8 ` 8.3.>.o.P f j M f u 9 ; 3 6 @ - 3 t y d f f 0 8 8 0 x B N 0 # @ % = - M z s 9 i 9 8 y D ) ^ ( R P Y B J %.%.5.4.=.) B O.%.",
"0 8 m x 9 3 - $ o @ v ' ` I ) [ J u @.%.[ | | 2.5.%.X.} [ ` %.4.o.d & S ' [ ^ W Q M r # o   # 9 8 f x u , $ d %.%.4.<.<.o.J | } ",
"| } [ ~ s q r x 0 M { -.#.o.) ` P u >.5.%.@.o.} %.&.[ } o.>.5.5.5.` f ' ' { { ! / ' Q D M 0 3 ; & C ~ / x @ > U o.%.%.o.[ x ' ) ",
"r.3.;.' M M F ~ s ~ } #. .| [ | | P 3.5.%.] [ [ %.o.] | ' o.<.3.&.M s Q / { ' ! / #.' ' ^ D x e s / / { ^ ; % , u u 0 3 - ; C I ",
"9.8.:.{ ~ ' { ~ x Q I Q | 1. .| } P I V B B B B J P B f u u M B 3 O @ = 7 u 0 7 1 f b z i b v u 0 M C A F 8 B x I K L J D f u 8 ",
">.o.' ' { / { ~ e M C W 1.3.;. .I 1 * a f B P g % < 7 7 1 3 < @ 8 f z 8 B x s b ^ ~ I v y ( ) +.<.o.) M b f f z ) | ;.<.<.6.6.<.",
"f j m V P D M s 6 c D D Q C n M k ; e V m ^ #.#.f W { ' ' { E w F Q W M O.| } O.| } ' D b -.r.r.r.w.4.) ^ ^ D J / O.1.,.;.>.O.O.",
"9 8 d v ; a B v g s 7 = & ; 7 r n M P I f M P D e '  .#.#.{ / r q C z 3 { %.} Q W { { v b O.>.1.<.<.#.( K F z s ) O.1.1.:.X.} O.",
"| o.#. .M | 7.<.#.| I M 9 - s x n x I P b M b s 9 ~ 3.#./ ' { 6 p ( U B B v s e z W W i s Y _ ( [ o.[ m b v - - K ^ ) O.%.o.( ^ ",
"} / W ' x ] 7.4.4.4.#. .{ 7 l A l r b s w r s k 3 a J I D D B 9 %.1.e.:.[ } } J z f z 4 $ * 3 5 y a % ; v H T G s s x f f u w 3 ",
"Y D I ^ 0 h @.o.@.#.| ' K 0 0 x q ; % % , f f m m j t , ; - % u 1.1.2.o.} o.[ O.[ v a f f p t 9 a s , 5 o.o.+.[ _ [ ..T > + ; 5 ",
"D F ' P v f a ; , y a a 0 7 - 8 Y ` [ ] ] X.&.<.&.5.<.#.' P 0 ; } { ( ) ' ( ) [ Y ( ~ K K I ^ } ' ` J 6 ( ( J J [ $.+.+.z S { { ",
"K ~ Y ~ <.4.o.) P | o.) R D f d 4.&.>.4.<.#.@.` ] [ | [ ' Y D 9 ) } [ ^ K W } X.) X.[ Y D B Y ^ _ ) K , H I U ..*.$.[ _ z ^ } ! ",
"r r z I q.5.%.{ ` } ' %.} m 0 9 #.#.&.>.<.&.o.` } ` ] ^ I F D 0 ( ( D K S K ^ / ) ) o.) ' } | o.O.W v * K _ _ +.[ L U ( h ( | Q ",
"& 1 3 P <.<.o.} O.@.O.` Y ^ f t #.[ } | &.@.` P J g f g x g v 0 ; , 5 9 z Y ~ J b H J P K J H S H s y ; 5 y z b x t u f 3 i E D ",
"n K E P [ } #.o.%.>.#.o.%.@.N t | | ` @.%.| } Y f x J R ` Y ~ Y i U [ O.2.1.<.O._ H y * $ v L ( ^ o.O.o.( ; - f v v v v b f u 5 ",
"E E c B o.<.3.>.#.<.%.<.>.D > - P } } | @.| | R V B I ^ J m M x 3 J [ <.1.+.+.$.+.<.0.%.f :.q.0.1.>.O.} Q 5 ( 7.9.q.1.1.0.<...P ",
"n n i % 0 J ( J B P J v j > @ % x B V ( ( ( ` R P P R ) ~ D B M = z ) :.>.>.4.5.5.q.w.1.v ..:.~ D s 4 w 4 5 W W Z K Y I ~ ( P J ",
"o 3 M f , 7 1 9 e @ ; x Y [ Y M f a y 6 % - ; - 6 D ^ I B b s u = 0 W ) ' | 1.5.1.2.[ ~ p 9 3 v J J S S K I v 3 p G U P J P G v ",
"# s { | ^ s z C D 9 `  . .O.-.-.{ ^ [ ~ M B f y P | #.o.^ D ; e 5 ; q 7 7 f J ( ( H z v y s s ^ O.O./ W ) ~ I S K %.2.0.:._ ( Y ",
"u v Q W F b D ~ W 8 F O.} / } { / W ' | } ' M x } { {  .-.{ x / I M y ; * S D K P Y L J ( f M _ } } ) / ) ) W J * 3 h G H v v y ",
"3 z I S F F Q F c * i W ) ) { ' ' ' ' ' [ | H u { ' { #.-.' m ~ ^ ( ^ K u D W F I K b C ) b D ^ [ } } } O.O.) b , b v h v v y , ",
"; 9 z x c M F C s ; % & w u u f D F K M I ' J u ~ } >.3.#.J m ^ P D J L v 7 E ^ W K ^ ' _ b B Q Q ) } >.6.0.0.L H $.o.O.>.X.H G ",
"~ 3 o 3 S I ^ ) { } v ; w , a ( %.<.4.4.o.J J R a { 3.<.4.( N ( ( P Y U J 3 l E F F / ( W z K | O. .| O.8.r.q.L p ( U T _ ) T T ",
"' ^ 9 M ;.| ! ! { W k s Y ' O.%.1.y.y.y.7.5.4.4.J } %.O.%.Y v Y ) _ ] o.o.y 4 w w e e 4 4 < Y } O.-.o.} O.>.1.b f ( ~ ~ o._ ) o.",
"[ | P ; * 4 e i r 8 % ; J <.#.o.4.w.<.3.:.%.#.} V Y [ [ I ^ [ ( ( ( o.%.o.f u y a h 9 0 u * f D K K K W K C z * t b G B S z p f ",
") / ) C - b I F I Q s % p <.%.o.>.5.w.5.q.4.@.| J ^ 3.w.5.1.3.[ Y _ ..o.( f I [ } | | | } u t d 5 5 u f z x b v v f s p ; & > 1 ",
"8 5 4 w ; F / / / / F 7 a O.o.) o.4.8.2.5.5.%.} d v [ } D v u 5 5 y p d y u z v v S W ~ K w L %.[ _ ( ^ ) [ ) ~ ~ U I Q y ^ ;.>.",
"_ T G p p M M G Q / Q f e } _ B L L v a d f v 9 : v v f j f y y N V Y Y ) o.] G H L G v v 8 J %.%.o.J ~ K D b b b S K ^ x } ;.>.",
"a.a.p.t.e.u.$.0 s u i 4 * y y t ; & w s f M C c b ) ( [ o.[ [ #.<.*.<.<.+...o.X.o.=.2.5.%.J _ [ _ ) ( ~ J J H b b ~ } O.b I W O.",
"w.w.u.u.t.i.X., p f d - f ] ..[ P s W ! Q Q ! F c Y P K ( o.#.%.%.O.+.%.+.o.+.=.=.=.%.%.} N ^ L K Y H J W J D E W ~ Q W s Y ^ ~ ",
"( R +.2.2.2.j R 0.e.w.G G X._ ( [ b c E / Q W F ; x F P ) o.o.[ [ o._ } +.%.%.%.4.5.<.o.) J S b u s s x x b M A K E W S v ....] ",
", ; * 3 t 3 u ..5.w.6.J p o.o.o.+.( r r r r r l = f ) } ) ) } ` [ [ _ ) ( } O.%.<.2.%.Y b u v f 3 5 5 y > $ + = < u u ; 5 P ^ _ ",
"z Q W K P b = ; y x f > t Y T T Y B 4 = = < w w : * - = ; , ; > 8 9 9 p u z N v J G v u = 3 ~ O.O.o.O.} ) b & i c n c b 5 % & < ",
"s W W K W W K D z r # ; v f s 9 5 3 & y K S / } ' ' ^ ^ b 5 h h J T v t > * O & 3 4 = = , M ^ [ 1.1.%.} ) H & 5 e 4 u s s > 3 u ",
"i F E / { O.>.-.) / c z ^ | } / W I S C /  .| } ! / { { F f J ( o.o.+.+.] ( y D F C l c v J I Q ) / D c b i d Z G J L ( ~ J W J ",
"i F C K {  .-. . .{ W 4 4 l ^ / ~ M i M  .;.O.} W W / / I r J U G Y o.=.0.2.a = 3 e z v i s b M x 3 5 a a 9 J ~ b v K J S K ~ ( ",
"% w w 4 u i 7 7 4 4 i = = = 0 0 ; - * I -.,.6.:. .{ / / ' g Y ( R Y ] +.o.J u z S D D D M ^ #.' W x o.%.:.<.1.2.~ z J P _ ( J G ",
"..] u , G H v 8 , K ~ I Y j 5 v j H B M ! ^ { ^ C s n I ^ e % 6 t 5 > 8 9 , 9 I K S c x v ^ } / b P 7.1.1.w.q.0.*.i z b B b s y ",
"q.5.T L _ o.] v h %.[ } 4.[ 3 a a 8 6 - # - 9 i g g f e 8 p v ( ] L 9 L ) R M ~ ^ Q ~ ^ ' ' ' } z Y 1.1.w.w.r.<.X.> > 3 $ & 5 K ",
"2.*.M M T Y Y b f } | | } K S #.{ K I ` s ~ %.3.3.1.%.) 9 J U J v y , v S v z J ~ ~ K F / ) D D u z O.#.2.w.q.$.L z U Y 4 J >.r.",
"*.T 8 H ( Y ( B v ' ` ~ Q z I ,.-. .#.| m | >.8.5.:.;.[ 6 6 9 u p z ~ ) I B x v f M J f s M M M v h f 5 u v N f , , L _ v ..<.1.",
"+.T f [ [ ( ) J v Y K S K c ^ 9.1. .[ ~ I 3.7.8.8.>.#.Y m }  .-.-.;.<.O./ ) @.%.+.} =.o.D {  .} #.} S p G H T T _ _ ..v 5 J H J ",
"y 3 5 h B B b 0 5 e s f z 4 8 ^ ' K S M v #.#.#.#.| ^ x a /  .} { } } } ` o.+.@.| ( [ Y b ~ Q } O.O.b T 1.<.<.<.+.+.5.Y t f & . ",
"G T +.R ( X._ _ =.=.] T _ Y 8 U ^ Y Y P x g 0 8 y i e ; : s b I ^ } | } o.%.%.o.} ^ Y M z / W / ) ) v ( q.4.q.e.q.w.u.( [ <.( % ",
"0.2.=.*.2.e.t.u.e.5.0.0.w.0.d ( ] ^ P Y ` ( P g M D D ~ ^ B e , 8 f f b J Y Y K J L B f s  .-.} / ) D ) i.e.q.0.=.2.5.L J %.<.p ",
"0.0.e.e.w.q.e.t.0.4.q.q.t.q.t J ( ` ^ R ` @.T x #. .-.;. .}  .) h , # , ; # @ * 3 u 5 - z -.-. ./ O.L Y e.e.0.q.2.q.q.L ( <.O.B ",
"..+.=.=.+.X.=.e.0.4.=.+.] T , f M P Y ` ] | J m ;.-.-.-. .! W } #.Y ; z c 9 x K } O.) v v ,.3.6.;.,.( D 2.2.%.$.*.2.%.L } 5.1.v ",
"% * * % @ $ % t u 5 & % o & ; 5 7 u e x m x f a / #. .} -./ Q ^ D ^ 3 k C Z } ' | | Q v ; S | #.| | ~ u v N v G L J N u v L M % ",
"M M t t L H L G h u 3 ; M I ~ ^ ^ Q I I I ~ ~ s i i M ^  .#./ ' ^ o.u M D I |  .>.%.[ D a v z 8 , # 8 C z 4 3 = * $ , ; * ; 5 f ",
"/ Q u L 4.%.<.5.2.%.U u { }  .;.#.#.{ ^ {  . .s u d e 0 B P M v u t v D D ) #.| O.| } K Y ^ Y P M 5 S E I D J D f S { / /  .O.1.",
"F k - T <.o.o.O.<.<.( z -.O.-.<.:.;.#.I { { { 9 V -.4.5.w.7.#.o.` u 6 , 4 D Y K M x s z P J K Y V ; 4 w M S b D b S Q { {  .) { "
};
