/* XPM */
static char *output_2_64[] = {
/* columns rows colors chars-per-pixel */
"64 64 132 2 ",
"   c #1B170F",
".  c #1A1712",
"X  c #1E1B15",
"o  c #221E17",
"O  c #221F19",
"+  c #242017",
"@  c #25211A",
"#  c #29251D",
"$  c #2A2720",
"%  c #2E2A22",
"&  c #312D25",
"*  c #322F28",
"=  c #353027",
"-  c #393227",
";  c #36322A",
":  c #3A352C",
">  c #3E382E",
",  c #3A3730",
"<  c #3E3A31",
"1  c #423B2F",
"2  c #423D34",
"3  c #423F38",
"4  c #464137",
"5  c #494236",
"6  c #464239",
"7  c #4A453B",
"8  c #4E493E",
"9  c #51493D",
"0  c #4B4740",
"q  c #4E4A41",
"w  c #534D43",
"e  c #584E41",
"r  c #524F48",
"t  c #565046",
"y  c #5A5245",
"u  c #56524A",
"i  c #5B554B",
"p  c #5E584E",
"a  c #5E5A51",
"s  c #605749",
"d  c #635A4D",
"f  c #695D4E",
"g  c #635D53",
"h  c #695F51",
"j  c #645F58",
"k  c #666056",
"l  c #6B6255",
"z  c #666159",
"x  c #6B655B",
"c  c #6E685E",
"v  c #716656",
"b  c #716759",
"n  c #736A5D",
"m  c #796E5F",
"M  c #6B6760",
"N  c #6E6962",
"B  c #736D64",
"V  c #796F61",
"C  c #736F68",
"Z  c #767066",
"A  c #7C7265",
"S  c #76726A",
"D  c #7B756C",
"F  c #7E786D",
"G  c #7B7770",
"H  c #7E7972",
"J  c #817566",
"K  c #847867",
"L  c #807769",
"P  c #847A6C",
"I  c #897D6D",
"U  c #837D74",
"Y  c #897F71",
"T  c #837F78",
"R  c #8D806F",
"E  c #868076",
"W  c #8B8275",
"Q  c #86827A",
"!  c #8B857C",
"~  c #8E887E",
"^  c #918575",
"/  c #978876",
"(  c #998A77",
")  c #918779",
"_  c #948A7C",
"`  c #998D7D",
"'  c #9D907F",
"]  c #8B8780",
"[  c #8E8A83",
"{  c #938D84",
"}  c #998F81",
"|  c #928F88",
" . c #979087",
".. c #9C9284",
"X. c #96928B",
"o. c #9B958C",
"O. c #9E988E",
"+. c #9A9791",
"@. c #9D9A93",
"#. c #A19585",
"$. c #A59887",
"%. c #A0978A",
"&. c #A39A8C",
"*. c #AA9D8D",
"=. c #A39D94",
"-. c #A89F92",
";. c #A29E99",
":. c #A6A096",
">. c #ABA195",
",. c #A6A29C",
"<. c #ABA59C",
"1. c #AEA89E",
"2. c #B1A493",
"3. c #B0A799",
"4. c #B3A99D",
"5. c #B8AD9D",
"6. c #AAA6A1",
"7. c #ADA9A4",
"8. c #B2ACA4",
"9. c #B9AEA1",
"0. c #B2AEA9",
"q. c #B6B0A6",
"w. c #BBB1A5",
"e. c #B5B2AD",
"r. c #BBB4AC",
"t. c #B7B4B0",
"y. c #B9B6B1",
"u. c #BDB9B4",
"i. c #C2B5A6",
"p. c #C4BAAE",
"a. c #C0BCB5",
"s. c #C1BEB9",
/* pixels */
"K K w x { ~ { ~ D Z U Z E  .U , k  .:.q.q.O.$.*...W : 8 l d f d l b q 6 Z [ +.o. .E E X.:.@.@.O.! 8 c S E F E H { @.~ [ Q E H k ",
"^ ` m S o._ O.&.:.<.&.O.=.:.X.B  .,.1.q.:.&.<.9.#.l 9 ` 9.9.3.$...R a i S +.+.[ |  .[ ;.,.,.,.@.~ i k E D Z D ~ ~ +.@.:.O. .[ E ",
"/ ..n E { X.O.O.8.7.&.:.7.,.X.k E &.O.<.>.3.w.9.R d d 2.i.p.9.>...P y k B +.X.[ +.X.+.;.<.6.,.;.{ i W .. ......._  .+.@.O.@.o.! ",
"....i ! E Q  .X.@.1.:.o.X.X.Q z k O.<.:.4.4.4. .A 9 l 2.3.5.5.3.~ b p S H X.+.| o.,.,.,.1.,.@.o.[ i ` *.*.<.w.:. . .X.@. .@.o.E ",
"&.R < Q E H H H H Q Q H D S c u 8 E ..%.>.#.P b l > J 2.$.' _ n > 4 n D Q +.;.@.@.+.;.,.@.O.X.~ S 8 _ $.$.4.5.*.&.&.Q Q ~ | Q c ",
"..f ; G z Z z a k i a q 8 , % # 4 i i k A l 4 > @ @ 9 b m b d 4 8 c ) P F Q U [ | ! Q [ Q D ! E k 9 _ .. .! W W n 9 5 q i p q 3 ",
"8 - % , % % $ O O O @ @ % % < 0 = q k w i p t t t : X # - # @ % < 4 4 4 < < 3 6 q q u y 9 8 7 > # 4 l b v y 5 - + # # X 6 H ! S ",
"Z c t # a a a M u r z S Q [ @.X.> D E ~  ._ ~ O.&.` b < t t k S B k k c k p t t i i = % 6 k M r t t 7 % + +   # t ! X.N a @.X.F ",
"o.~ c 6 Q [ 0.e.e.0.0.6.0.6.,.] - E W ~ ~ W W W ) _ ! d F ! O.&.:.2.>.O.~ ) W ~ ~ P 8 c +.@.o.o.,.1.,.Q p * < U X.o.[ U u S S k ",
".._ F q T ;.t.t.y.u.e.e.t.0.,.N - E P ! ~ W ) E W _ E l W  .O.:.1.<.>.:. .! W W E A 8 Z o.o. .| +.<.0.7.6.C c @.;.X.H T 6 5 , # ",
"' ` A 8 Q ;.e.0.t.y.t.0.e.t.6.! 2 V E ` _ ) ) ` ` W K i P O.@.:.<.<.<.<.&. .[ _ ~ D p Q X.@.O.X.X.,.0.<.X.D S [ X.| T G P  .E V ",
"$.O.Z 3 Q @.6.,.6.0.e.0.e.u.e.X.t V )  . .~ _ ..' _ E 4 Z O...:.:.<.<.:.o.O.O... .P g X.<.,.@.@.;.6.6.+.] c z T ~ ! T S E O.` ` ",
"$.' V 2 G ] X.@.6.7.0.e.1.8.q.X.9 W _ W P P W ( .. .E 5 l .. .:.<.8.q.:...O.o. .O.E i +.e.8.@.X.@.,.:.X.Q u x T Q T G C Z .. ...",
"..K l 4 x G | ;.,.@.@.@.X.O.{ B > W ) W D A A E ~ W A 4 h  .O.<.4.4.7.:.~ O.=.:.&.Z 2 | u.e.;.o.;.,.@.X.T r C T [ ] S x t R  .` ",
"' / l : 7 S ! X.[ Q Q Q D n d 9 @ 9 A A A m h d p s 5 & i  .:.8.1.:.:.:._ o.@.:.=.k ; X.a.t.,.o.;.;.@.o.C 3 M G H S z g 6 / _ W ",
"y y 9 : % < 3 6 < , & : 6 - - - @ X % 5 5 4 9 5 > 4 9 9 > > 6 i c k Z P W  .~ O.X.4 & X.t.q.,.+.+.+.+.~ a < x N j a k x ; p W ' ",
"p k Z k 6 # . 6 N N C C N Z E _ E y = d F _ ..O._ W W _ E A 6 @ O . O O # * , 7 6 X @ p S D Q Q U D U D q * z i 6 , i 8 # + 8 V ",
"! H [ X.U i 3 @.t.e.7.;._ E E ..$.F 4 n W $.*.&.2.O./  . .O.c 3 x N N j r r q * X = 2 4 4 = - > 2 < 4 5 * # ; 2 q q B E Z p : # ",
"~ E  .o.~ B 6 ;.1.,.,.;.X. .E E ..n : A _ ' ....>.-.O. .~ ~ c 3 [ | X.+.+.X.X.c t W ' W D c k c S H Q S c i ^ O...&.1.&._ ..^ Z ",
"E E [  .! c 6 @.0.6.,.,.@. ._ ~  .A : y K R K K &.-...~ E F p q 6.7.7.6.0.7.;.j d W / ! P F U [ X.@.,.,.H l ' $...$.-.&.O.9.O.^ ",
"H U Q U H c 3 +.t.0.,.,.6.:.O. .:.O.k > : 9 f f A E n c Z N 8 i 0.y.u.t.0.6.X.r E O.O.^ U P ~ +.,.,.;.X.S z W ` ....*.O.<.r.3._ ",
"T T T S S c 6 ! ;.;.;.,.1.:.&.` O...E g % > 9 5 5 5 : - 4 2 # p 0.y.y.t.0.6.[ y *.9.:...'  .X.,.6.6.;.X.B a / ! E E  .) :.w.1._ ",
"N C N j k k < q N S S H F ~ O.O.>.&.P k 5 @ & > > 8 y p A A d k 7.s.y.e.e.1.Z d 3.q.:.&.O._  .,.6.+.| T z t ! ` ..)  .O...:.&.O.",
"3 3 3 , 6 3 # # ; , , < , 6 g G F E V k 6 7 _ $.&.&._ R ) $...c @.t.e.0.t.<.c k 3.>.>.&.O.{ o.,.,.X.[ T a q R E _ ) ^ `  .&.2.:.",
"8 t k l x k 2 c ] X.| | G S ] | l 5 4 9 c ..5.5.5.3.-...' #.( p ;.t.q.0.e.a.o.p $.%.&.*.O.~ X.X.@.;.o.H 7 5 A E W A m J R O.*.$.",
"B A W D B Z x { +.,.,.+.Q Q ] ;.<.G # p 5.w.2.3.9.w.w.3.O._ v 8 @.0.u.e.e.e.o.8 _ O.O.&.O.E Q [ X.@.{ c = 4 f B n f f f A ^ ` K ",
"E / _ W _ R x [ | ,.6.,.] Q | +.;.,.C t ..4.*.&.9.w.w.q...b 1 4 O.:.,.:.o.o.N - l A P A x x l g N g t 6 4 4 - - : 4 > 4 9 d A c ",
" . .`  .:.O.c D @.,.,.6.+.[ | X.@.;.T 6 K ..O.*.3.4.2.O.f : 6 t t 6 6 6 6 q 5 9 k t 7 > # X $ 4 t k R :.>.O.E V E ! y @ 3 2 : : ",
"/ W ! ~ o.O.S N +.,.6.6.+.+.| | X.+.Q < 8 N m n n n i : @ c &.:.F # # t t d D W ..~ E E P i p _  .&.>.3.w.w.>.O. .) l 8 S U N u ",
") E ! { X.| U N X.X.6.7.,.;.+.X.| X.Q q # 4 > - = = 2 > > ` 4.>...i p ' _ ` ` ` `  .` ) *.E c ' O.:.>.:.4.4.1.<.' V p 8 c S S H ",
"~ ! ~ | X.! G S @.| +.6.6.6.+.X.| | T x 9 ^ R n v n A A c O.4.*...d i ' ..*...' ..&.:.9.w.~ A O.:.1.4.9.w.q.r.w.>...F t z S Q ] ",
"X.~ Q ! { Q S k @.+.+.,.,.| ] | X.| ] S 9 J A n l V A m n .... .W b 8 / ..O.( ` ..*.<.4.9._ ) :.4.w.9.w.r.r.w.r.w.>.~ i S G Q H ",
"! Q U Q X.[ G z | | | +.@.Q H Q | | ] H 7 b V b d h A A B W A m b m 9 A / / R R Z ~ *.5.&.V O.:.>.w.w.1.4.5.w.>.$.` V 8 D Q U H ",
"U S D ! ] Q S u Q Q Q Q ] H B S Q Q T T 9 l I P l b A d i F A b f f 4 8 D E n y q a p n l 1 Z W ~ *.>.$.$.2.2.*.` P d 7 E Q ] H ",
"g g z B x a 0 7 N k g x S D N Z S x j B w : e s 9 5 9 w i e 7 2 t i p i 8 4 4 % % ; * * t k S [ x y V K P ^ W ~ I m 5 > S Q [ Q ",
"> - t z u t * X * * < u g r 6 0 q q w r i q : X @ 7 D W ..) W ) O.&.&.&.' E E c 0 3 C X.@.,.,.6.@.i # # = 5 > 4 1 4 - # a H G U ",
"< 8 Q X.] { N @ q F U E Q Q ! ] Q [ X.| X.@.] r : i x D ..>.>.4.q.>.O.*.....&.n r X.;.6.0.,.@.6.,.N % , < 3 , , r B a ; < q 8 t ",
"* < E  .Q H N <  .<.=.O.@.6.@.X.] X.+.;.@.;.6.@.H 7 7 A ..3.>.4.4.:.*.-.O.O.&.y G 7.;.@.;.,.@.,.;.a N N ] X.| [ ;.,.6.| Q H c i ",
", 3 H ] Q T x 7 ~ =.<.<.6.6.@.+.+.@.;.6.6.,.@.,.,.g 7 x ..<.>.4.>.O.1.<.O.` ~ i @.;.@.@.;.+.;.,.Q 3 N H | ] @.;.@.@.6.@.[ [  .^ ",
"q u Q H Q Q x w _ =.:.<.0.0.7.@.;.@.,.7.7.,.@.+.;.z 9 k U %.&.&.:.&.3.1.:.E d i @.@.+.;.@.] | X.a 3 G [ S N | X.@.@.X.X.[  .) R ",
"i u H S T T x t  .=.:.7.e.7.6.6.7.6.7.7.7.@.;.+.] i < q g B F U _ ..O.` E l 7 6 c N ] Q H C z r # 6 S H a a Q Q Q X.]  .[ .._ A ",
"a 7 x S S S j , ~ :.,.,.0.;.+.6.@.X.@.@.@.+.@.[ M q * u a q 2 < 4 8 > % , ; + X O $ $ @ @ * * * 4 < r u r a S G M S D Z Z P V d ",
"p 4 u z N N a ; D :.6.7.6.[ | X.] G H ] T H H G i : S ,.+.X.[ S N a # u | Q T T ] X.T C T X.@.,.@.k : : ; 7 3 * & % < t p 9 9 t ",
"x 5 > 4 i a u : e ! +.7.+.] H S M i i j a 0 3 , * , +.7.;.,.,.@.| H , Q ,.| +.,.,.6.;.6.0.t.u.t.7.@.Q H u $ 0 C H Q [ | [ H  .@.",
"&./ A l k 4 & # 6 w 8 q : ; * $ > w 7 7 u z h x n p <.7.@.6.6.@.+.[ u T +.| ] [ ;.6.6.0.0.0.0.@.;.+.@.o.u j +.7.e.e.t.7.,.0.e.,.",
"` ) _ ..>.A = B o.W c i 6 < @ : Y &._ / o.O.../ D i +.X.+.,.;.@.+.[ j T ] ! [ X.[ +.,.6.@.+.@.[ | X.@.X.0 H ,.@.0.7.7.;.,.e.6.@.",
"~  .' %.*.R x :.{ ! U U H U g g ..%...&.%.....` F 7 +.,.@.,.,.+.| T 0 B H G [ X.] T +.,.X.| +.@.| ! ! Q q T 6.;.;.6.e.6.6.0.,.+.",
"/ ..O. ._ x n :.O.&.O.! U H N V %.} } ..} O.-...H 0 +.7.+.@.+.+.[ H < u c M T H S C | +.Q T Q [ [ U c c 0 H +.,.@.+.0.0.6.e.0.@.",
"W ` ` E E h l <.<.1.:.o.! P k Z ....&.:.&.<.&...K e X.X.Q | | | [ U 4 i D z S N M S Q ] N S S S S D B N t H +.+.X.X.+.,.7.6.,.@.",
"_ ' / / ( f 9 O.:.@. .~ F B 9 A ....>.4.4.>.O...K 4 X.,.[ [ | X.@.o.p 7 k u k u z N H H S N H H Z B D z 6 c ! ! X.+.~ | ,.;.X.X.",
"' *.*.$.` y , ~ &.O.E D F l 8 d / %.$.&.&.O.../ m : [ 6.[ X.@.+.X.| a i E k 7 4 q a N M N M S H B k x i % 6 F Q ] Q z Z  .! E ! ",
"l f A f 4 @ @ k F k 9 8 2 = % 5 P R W R W R P A i : X.,.+.+.X.X.Q S 6 = y d t 8 q a j q u u z N x i r 2 @ # 7 t 3 * : > : < < 3 ",
"Z - @ : k p 7 < ; # @ . o % @ % 7 l b k p p p y > # D ~  .~ Q H N a ; i 9 5 y d t i a w 7 8 w q 3 2 4 y l & 1 f c t z G i 8 c G ",
"E i 4 F W c F ~ Q S N C N a , 2 ; , 5 6 6 3 q q : # = 5 > & = : : $ 2 ..%.&.W Z q ; = # # = - : 9 c J W R 9 E :.&...y.u.;.X.,.0.",
"F i y B ~  .X.+.,.,.;.+.X.T c | U Q X.+.+.[ [ X.+.z B O.E x y 4 = # 4 P %.4.4.&.` _ A 2 d m m J R ( ' ` A s ` :.:.1.s.s.0.6.7.y.",
"S 8 q p B ! | +.+.+.,.X.| G z [ Q +.,.,.,.,.;.+.@.i E >.3.<.<.&. .E t p m I ) ..&.%.R t l K K A P ^ ' ' 9 d &.&.,.a.s.u.y.6.6.0.",
"x i 9 i 9 a S ! ] Q [ Q [ N a ] | ,.@.@.,.,.+.| Q 4 c >.4.&.:.=.O.~ B y d 9 y l p t 4 : q l p 7 s v J A 4 n *.&.w.r.u.t.e.,.,.,.",
"S k : 9 2 : 6 k C S G H T j u | @.+.+.+.X.| Q T N = i *.>.' :.O.[ H z 6 9 4 1 y N H E | ;.1.6.X.f 4 f f - d #.O.u.a.u.e.1.;.;.@.",
"C p d *.-.E 9 - q z c C C q 0 H ! T H Q T G T U k % : Z P L ! W H S 0 # ; 7 [ e.t.y.t.e.7.0.e.0.[ 4 q w : - A _ 4.r.r.q.<.,.;.@.",
", ; A 2.5.5.' m < < i z a * , C U Q G S N S C j 7 % @ # : - : 7 t < < n i ~ :.7.y.y.t.t.u.e.e.0.[ i G E  .N l  ...O.>.<.<.1.o.O.",
"% 6 ^ *.2.2.$.' l % < 2 ; X & 7 z z q , * ; $ O < t p k A n p 5 9 l ` w.c D X.7.t.y.e.e.t.6.6.,.U i S H  .;.c F ` E O.<...&. .E ",
"a k ' 2.*.$.*.*.' g x k u c S 0 # * q S G j < @ x U E ) .._ ^ ' $.5.p.>.l < S X.,.e.e.6.0.0.0.| B q G Q o.@.t b E ) ` ` Z ! ..O.",
"p y R ` R R / ` ' ( A ! ] X.;.z 8 z G ] | | N < S ! ~ E R W W R ^ ` W b 7 = N Q | X.+.+.X.@.+.H M 3 x T [ [ 4 8 l A K K A E E ) ",
"8 l d n n n b R R ^ B [ X.+.+.a u T T T Q Q U 8 D X.E i 9 s i 9 5 b d : @ $ q a C S H T T T ] H r < a N F Q < + = 1 9 9 i p f c "
};
