/* XPM */
static char *output_3_64[] = {
/* columns rows colors chars-per-pixel */
"64 64 162 2 ",
"   c #050503",
".  c #0A0A06",
"X  c #0E0D09",
"o  c #100F0A",
"O  c #14130D",
"+  c #18160E",
"@  c #1B180F",
"#  c #151411",
"$  c #181711",
"%  c #1C1A14",
"&  c #1E1D18",
"*  c #211E15",
"=  c #211F18",
"-  c #242116",
";  c #292417",
":  c #25221A",
">  c #29261D",
",  c #2D291E",
"<  c #322C1E",
"1  c #272520",
"2  c #292721",
"3  c #2D2A22",
"4  c #322E23",
"5  c #363125",
"6  c #393325",
"7  c #363229",
"8  c #3B352A",
"9  c #3E392C",
"0  c #3A3731",
"q  c #3D3931",
"w  c #423C2D",
"e  c #483F2F",
"r  c #433E32",
"t  c #47402F",
"y  c #4A412E",
"u  c #464134",
"i  c #4B4434",
"p  c #46423A",
"a  c #4B453A",
"s  c #4F483C",
"d  c #504736",
"f  c #524936",
"g  c #534B3C",
"h  c #584F3C",
"j  c #5A513E",
"k  c #60543F",
"l  c #4E4941",
"z  c #544E42",
"x  c #534F49",
"c  c #575145",
"v  c #5B5343",
"b  c #555049",
"n  c #5C564A",
"m  c #5F584C",
"M  c #615744",
"N  c #645945",
"B  c #685C47",
"V  c #645B4B",
"C  c #695E4B",
"Z  c #635D53",
"A  c #685F50",
"S  c #6C614D",
"D  c #71654E",
"F  c #676054",
"G  c #6C6353",
"H  c #66625B",
"J  c #6D665A",
"K  c #6F685D",
"L  c #716652",
"P  c #756955",
"I  c #7A6D56",
"U  c #706758",
"Y  c #746B5B",
"T  c #7A6E5B",
"R  c #7E7057",
"E  c #7D715D",
"W  c #756D61",
"Q  c #786F60",
"!  c #7C7363",
"~  c #7C7569",
"^  c #807056",
"/  c #83745D",
"(  c #87785F",
")  c #8A795E",
"_  c #827663",
"`  c #857965",
"'  c #8B7C65",
"]  c #807768",
"[  c #847A6B",
"{  c #8A7E6B",
"}  c #927F60",
"|  c #857E71",
" . c #887F71",
".. c #8F8067",
"X. c #8D816D",
"o. c #928266",
"O. c #988565",
"+. c #93846C",
"@. c #99876B",
"#. c #96886F",
"$. c #9A8A6E",
"%. c #878076",
"&. c #8D8273",
"*. c #8E8679",
"=. c #928673",
"-. c #968974",
";. c #9B8C74",
":. c #908778",
">. c #948A7B",
",. c #9A8E7B",
"<. c #9D917D",
"1. c #A08F71",
"2. c #A29176",
"3. c #A3947D",
"4. c #A9977C",
"5. c #AA997D",
"6. c #968E81",
"7. c #998F80",
"8. c #9D9283",
"9. c #9E968A",
"0. c #9E988E",
"q. c #A29583",
"w. c #A69985",
"e. c #AA9B84",
"r. c #A19789",
"t. c #A49A8B",
"y. c #AA9E8B",
"u. c #B19E82",
"i. c #A69D90",
"p. c #A99F91",
"a. c #AEA08D",
"s. c #B3A185",
"d. c #B2A38C",
"f. c #BBA98E",
"g. c #ADA293",
"h. c #AEA599",
"j. c #B2A593",
"k. c #B6A996",
"l. c #BBAC95",
"z. c #B1A799",
"x. c #B5AA9B",
"c. c #BAAD9B",
"v. c #BEB09D",
"b. c #B6ADA1",
"n. c #B8AEA1",
"m. c #BDB2A3",
"M. c #BEB5A8",
"N. c #C2B39D",
"B. c #C2B5A4",
"V. c #C6B8A6",
"C. c #C9BAA4",
"Z. c #C1B6A8",
"A. c #C5BAAB",
"S. c #C9BDAC",
"D. c #C6BDB1",
"F. c #C8BDB0",
"G. c #CEC1AE",
"H. c #D0C0A9",
"J. c #CCC2B5",
"K. c #D0C5B6",
"L. c #D2C7B9",
"P. c #D2C8BA",
/* pixels */
"g i G ~ v 9 , 6 8 8 4 e Y _ ,.=.E &.r.{ h 9 i i d 9 > : * 4 o . . O 5 r Y { #.{  . .] w 2  .g.7.2.w.u. .w X @ < 5 3 + X . 4 / / ",
"T w.A.V.v.l.w.-.#.' G * * 8 s i g q 3 , : 5 P Y +.k.w.*.Z r 2 * r l W y.3. . .=. . . ._ w r 8.q.q.w.q.a.q.m w p z c J l 3 z t.[ ",
"k.B.B.A.V.V.N.d.5.u.s.{ z O   $ 3 : 1 7 H &.t.c.B.k.m.v.N.w.V L q.e.l.N.e.;.w.w.y.8.7.x.] 3 | ,.q.q.,.q.x.a.q.q.q.u.a.q.A ^ e. .",
"G ,.y.d.d.k.N.B.f.k.f.s.u.! 8 ] 8.<.8.,.z.x.z.k.y.w.z.k.x.w.z T w.p.y.y.3.,.w.z.z.p.j.k. .r ] { { q.w.c.c.N.j. .'  .q.,.I ) } } ",
"s j &.k.w.e.k.y.e.j.N.j.j.w.n  .&.>.&.&.a.x.j.w.y.d.k.m.n.7.M ` 1.e.q.}  .7.j.z.9.7.8.y.W Z 2.{ ( { y.C.a.w.B.x.7. . .[ V } 2.1.",
"Y a a S [ q.w.;.+.2.e.d.d.M r T ! X.&.=.t.z.j.w.y.y.j.y.t.Y ] #.e.4. .{  .3.8. . .] _  .e ^ 3.' ` } q.a.<. .7.w.{ ] L r M ( / ( ",
"E U 9 , d Y [ 8.j.w.=.3.=.> r P ~ [ X.:.X.&.>.r.w.,.7.,.] Y | L / '  .e.q.8.>.Q F v r e 7 v D D ^ } ' G j e g g e 8 3 = 3 = $ * ",
"7 G X.U v 3 - > s M s s 4 # z { =.-.&.X.` G ! &.U P / z C ] G 8 e h B z e w 4 = = = 1 1 e w @ * : 7 r 3 O o X X o # o 7 2 % . . ",
"w 4 r a 4 o o . . o $ $ o $ r ! &.[ %.! E ! G t @ : 4 @ > s 7 o $ % % o .     % b  .i.p.u.3.{ } / ' L % # s 7 1 n m n [ >.K = p ",
" .U r % # o o > 1 2 $ o O r a 1 1 & ; u j v s * . o $ 2 z H s 7 A _ |  ./ C 7 6.A.N.c.d.5.f.N.5.u.f.u.N e _ L ^ { {  .1.w. .2 x ",
"w.7.7.Q W A g { +.` Q Y ~ b.z.~ Z Z x , * > @ & s ~ >.9.h.x.>.T { ` { 1.{ S w p.N.d.y.e.2.2.{ v e h e 4 m ^ I [ { ` ' ' S w 2 4 ",
"p.g.w.r.8.,.C ` 3.>.w.j.b.h.b.D.J.M.c.9.Z & l 7.x.m.m.m.g.<.X._ 2.` B M w $ = e Z U M B N w * + $ $ > e e z v U r * 2 1 2 [  .7 ",
"n.x.z.p.,.&.C z q.4.u.j.p.p.z.b.b.9.<.z.~ q t.x.m.m.m.M.x.>.T G F M e V n G  .Q v v * w r l Y { 1. .1.{  .q.g.n.Z l ^ ] 6.j.k.i.",
"x.g.t.=.] T s , v P ,. .6.7.8.9.>.>.a.j.v %.x.b.b.i.x.x.g.3.,.Z e s [ t.a.k.y.q.' / M y.N.N.N.k.N.c.w.7.9.t.i.0. .1.w.y.p.y.x.A.",
"t.y.w.y.k._ 4 w : = r 4 2 > 7 l g E X.F a =.,.9.g.h.i.g.t.X.>.Y t.a.p.q.z.n.q.2.#.M ^ Z.Z.A.Z.B.j.q.} 8.q.t.8.] [ q.3.7.y.e.e.a.",
",.j.y.w.G * a d.p.] z v { ] l 7 3 > @ O s G [ %.>.9.9.7.>.<.<.h  .a.y.7.q.y.7.7._ w >.B.N.Z.Z.b.q.} { 8.i.i.] M 7.N.N.k.p.q.e.q.",
"T ] P r o 7 ,.N.C.f.s.f.f.l.v.a.q.[ s 7 U L ! ! Y %.*.:.<.g.` , V {  .` { 1.' S d e w w w e b P  .( '  . .6.F r q.y.e.;.t.w.q.3.",
"% # = 2 n  .y.g.a.s.4.s.a.s.l.a.<.&.s T ..Y Y Q J F Y [ *.a.=.N e = w 5 w M v w e v = = # + 6 v ^ V Y ^ Z A e w 7 3 3 4 C ^ I ^ ",
"C 6 r { =.;.;.,.-.&.X.=.,.<.,...X.S J c.a.>.%.J m V V U [ *.=.S Q v r e 3 = = 2 e f D I M w e 3 : 7 p p p l ]  .Z l 2 = * = = e ",
"2.{ C ,.,.q.{ { ;.] ] :.w.s.5.<.<.f &.v.c.j.r.L j U C S C Y G S _  .{ ^ M ' ' ' } e.u.e.3.8.{ e ] p.x.x.x.g.x.x.k.k.p. .] [ e 7 ",
";.o.,.k.z.t.&.=.<.<.X.<.q.<.8.<.n , &.c.v.a.8.q.>.` T D v C n M _ I M e P 1.;.} 1.2.2. .} 3.T N 8.q.y.g.Z.h.j.g.p.n.n.c.y.;. .0 ",
"( R v ` ,.,.>.7.q.3.,.` G u 5 < % : 6 S F s v E E g j F S R T S P c w e ;.3.{ ' 1.2.;.D g e 4 c  . . .9.i.h.j.t.p.p.d.k.y.} ( G ",
"B w - * 4 5 z A U R S 5 % + O + 8 j t @ X & 4 p q 4 1 > < 5 8 a 3 r = g w e V M g f e w 8 3 4 c  .2. .>.9.i.9.y.y.j.g.w.8.q.;.8.",
"@ o 3 n > X . . O * % O O > v J ! +.,.Y p a.c.m.M.x.<.:.| m q n e Z A V U z e g C T _  .1.' S e G  . . .[ /  . .=.t.7.q.1.} ;. .",
"% x 0.M.0.K l 7 J :.,.:.! a i E T Y ! E ..j.V.G.V.v.k.j.d.j.a.<.>.A.x.p.w.-.T I / _ { _  .{ { $.S C  .Y h M Q T U Q  .9.t.#.#.1.",
"0.A.J.x.a.a.j.%.:.,.a.r.r.J : 3 6 q 9 5 #.v.l.l.m.v.l.j.j.d.3.` _ p.b.8.[ L M V P { 8.>.>.1.;.{ ` N g g e h c c M U Q | 8.3.1.q.",
"J.A.j.y.r.s.&.S Y &.3.8.8.<.~ 8 # 4 2 u a.k.a.g.v.M.M.l.j.w.-.=._ =.r.r.i.7.] ` [ ` >. . .{ ^ Q L ^ 3 $ = = * # # 3 s x U W Y Q ",
"y.q.>.<.r.&.V v Y ` ;.<.e.e.<.=.E X.E T v.a.a.a.z.v.a.g.-.T G T V A W :.p.g.8.` _ _ _ _ ' ` P A L S z  .7.[ J J n x r r r e { w.",
"W ~ _ [ ! g Y &.X.X.[ ..;.;.+.<.<.+.L Y q.<.-.>.g.9.8.t.X.Y ..` M U U 6.7.,.7.,. .{ W U _ ^ L B D k / V.N.p.z.B.c.y.d.d.y.I { e.",
"&.&.~ c > > ..,.;.<.e.3.../ ( ......S L ,.&.Y %.X.T X.X.! T ..E r Y ] [  .]  .=. . .=.[ ] A e f B N _ z.j.b.n.j.z.y.e.y.y.] N w.",
"9 4 5 6 * 8 N S I E +.;./ N P S P E S i Y T G L Y G n u 6 6 7 t e U N c  . .[ ] |  .| [ U A M f e g Y q.w.h.b.j.z.z.z.j.y.3.w Q ",
"o $ f N u 9 , - % % ; 5 % o , 5 5 , 8 * @ ; : : * % O & a Y =.;.^ V C z T :.:. .| ! Q [ [ U B z g e C q.q.8.y.y.j.d.d.l.N.d.c e ",
"{ ! P [ =.' { P T T P P r 7 v x n ! >.W 0 % # # # & 5 X.e.w.w.2.{ w = = = 3 4 r z z A T Y ] ( L G N g >.w.t.w.;.y.f.j.l.l.k.] ; ",
"5.O.#.+.{ { =.,.=.2.;.{ a =.A.n.c.S.J.A.n.0.*.&.&.[ G ` ' 3.;.;.3.G 2 C [ U A ] ,.q.p.{ w 6 f s w 5 , T =.>.-.+.=.-.` ` =.w.,.5 ",
"} ) _ T =.{ =.-.` ( { s f g.Z.x.x.n.A.D.A.A.m.x.x.y.E L ' ..+.-.{ T U e.N.y.e.w.y.k.j.G h g * # $ 3 x n n 7 7 4 4 = * , w r e h ",
"1.@.o.} ;.3.2.$.` { V z { ,.j.n.b.g.x.z.g.A.M.x.t.y.[ g Y @.-.<.3.Q ` w.3.7.w.e.3.q.{ 4 r ! r.*.9.x.Z.n.m.h.6.| r # 6 ] ` ' Q c ",
"4.@.@.X.` I / ^ C v s T ~ W ! 7.g.r.6.%.*.t.8.g.0.<.] 6 u v R &. .A Q 8.8.r.,.7.8.,.5 w 9.n.Z.D.D.D.M.Z.A.A.B.k.p.M 6 D ( 1.e.e.",
", , 4 7 4 = * * N ] { ] |  .! A K %.9.r.8.] *.t.r.>.G > : : 3 c L V ] =.8.w.r.7.6.[ q q.n.z.p.n.m.D.L.L.Z.c.u.j.V._ f ` ^ { $.3.",
"b H | %.| ~ Z w ] >.{ T W W ~ %.K H  .6.>.8.z.a.] c 6 9 q n l 1 # > _ { ` 7.8.r.:.Y W x.z.p.z.z.Z.A.L.J.A.l.d.j.S.{ f ] ^ ' ' q.",
"M.D.m.t.p.p.7.V g A ] ` | | |  . .~ m G E >.J i i a W t.h.a.r.6.7 w T ` _  .t.p.>.M  .Z.Z.p.p.g.p.x.A.N.B.B.l.j.l.=.M T / ' { { ",
"b.h.8.,.>.*.%.J 4 w b ~ *.~ ! K W K n e 9 : 3 Y <.w.k.m.j.y.8.y.Q s ^ ` { >.r.i.*.z ! A.Z.x.B.Z.z.x.m.c.k.V.l.p.y.T B ` ' ( ' 3.",
"*.! [ *.K c n g i 3.' I S v a 3 3 3 3 O o h $.1.5.<.<.q.y.h.y.w.w.g c _ ,.8.6.8.6.x A g.,.g.A.x.y.t.t.j.j.N.c.w.#.k T -.$.-.,.d.",
"q u 7 3 a s s , t O.@.$.O.` ' P C U / r M 1.2.2.w.2.w.>.8.<.a.B.w.N = 5 n A  .[ n 4 x =. .p.w.,.>.G G ] w.k.k.2.D h I } { ] ,.d.",
": p Z %.7.[ { >.E -.-.+.o.[ _ ' C C j 9 $.5.e.e.j.a.<.<.&.[ q.g. . .V r $ o = 1 = # O = 3 4 0 1 4 7 4 4 8 g A A > ; , 6 4 4 i g ",
"a.G.G.l.a.w.k.a.S #.-.X.=.` T T v 6 , j e.d.u.,.<.>.-.<.=.] =.<.] ] e.3./ 6 0 x [ Z K Z l Z A 7 2 s C r o . X . & q $ O : = > 5 ",
"m.a.$.$.#.' L S i _ ..+.&.,.r.q.X.6 : / { T +.E ` X.-.-.=.8.&.=.J { p.{ ] s U t.7. .p.D.Z.m.t.V I 1.@.+.s 8 z a G q.! U 3.,.Y V ",
"..#.o.$.;.( ' ` i B R Y E E T #.e.G : S P w 4 5 s X.` ( ' 8.>.] V Q ` ] P w g q.6.r.h.p.6.r.r.T ' $.{ { C N V M >.w.q.q.y.l.j.=.",
"I ( ..o.$.....` h , i B i 8 8 6 9 9 8 4 5 4 > < 5 h _ X.X.=.3.&.M x A T A h r ~ h.h.,.] | [  .' 3.;.#.+.' w e g W ,.q.8.3.t.y.3.",
"E ( ( R +.+.+.( s t S h s W H l Z 0.h.8.&.G 5 9 G r 6 S S G E Y i 9 5 5 r b m u ~ >.X.P ` o.P / 1.o.} -.X.u 6 c [ =.( ` 3.g.w.,.",
"../ P ( +.;.+.S i h i ; Q m.b.M.J.D.b.x.l.c.z.E S N w % % - + O O 3 m ~ W Q ,.M > < v P #.R 6 ..O.#.+.=...! X.,.<.-.) / ;.e.e.,.",
"D f 9 S I R R S S G s + G j.h.z.b.h.b.g.y.8.r.G i h N i 4 5 % # 4 &.a.j.S.m.l.l.( i S ..E 6 8 +.o.o.` _ E Y a.a.w.a.;.' +.8.t.i.",
"9 < @ - ; 6 S y s S t ; v a.x.a.g.g.i.t.h.q.>.v f 8 - w i F I D -.d.a.y.x.c.z.j.d.2.<...( 9 m #.( / ( { ! i J X.I I E ( ! Q ! W ",
"5 > w S S u 8 w 6 , < f N ;.-.-.,.8.q.9.g.,.Y s w 3 + I s.4.2.5.4.a.y.e.y.k.g.y.a.;.X./ M t R ..{ I P R E s u 0 4 7 4 2 9 b U | ",
";.,.;.;.+.E L D D v P D 9 < ; 5 z :.8.%.W r 4 T +.X.i I 2.$.1.;.@.;.8.8.<.e.3.q.a.r.;...d d ` X.X./ P I >.a.8.>.t.8.6.| >.m.m.m.",
"v.c.V.V.N.v.M.N.k.<.X.L 7 X . X % 2 : 2 q v { 3.w.w./ I @.o.O.@.' #.+.+.<.e.2.;.j.l.<.S 8 S X.X.` ` ` X.<.r.:.0.p.9.6.%.r t.t.-.",
"j.a.a.s.s.5.v.N.m.V.H.v.a.n m n m 1 4 P o.;.1.#.-.w...M o.o.o.o.) P I ` ;.<.;.` E X.D i 5 N &.+.E / _ -.a.t.:.7.h.h.i.m $ V 8.9.",
":.>.X.+.;.s.j.s.c.k.s.a.v.l.v.N.H.X.j ) / ^ ` -.q.3.E < k ^ o.( ^ S i f N B f 9 9 > > * 5 v E P S E ..;.3.y.9.i.h.h.%.7 n z Y [ ",
"f V f ( $.<.;.;.d.j.s.d.s.<.5.s.l.S f ^ D S C G T I M 8 @ @ 6 h f t 4 : O O % 3 q b ~ ~ U t f v N S R ' +.8.g.h.h.%.Q i J [ ~ *.",
"a f h f D X.../ ....;.1...( o.+.I w N ( D B h 4 8 3 s q.{ p 4 7 c ! E 0 3 a Q [ ,.7.x.n.>.d 8 5 9 j D I E &.x.n.6.:.6.Z W *.9.6.",
"F g t d f f h j d t 9 6 < t y f 5 i j h i , < Y e.-.o.e.f.e.3.q.q.e.<.` ~ F ] [ &.&.8.=.E j N S E U v u t 9 g z l m m v n ~ m l ",
"X.] 8 = 4 t t t 6 - @ # @ * % , g =.<.=.Y v v s.s.w.e.2.) ' 3.q.=.G F X.:.z z g g s u 7 8 S 3.d.N.v.d.-.&.~ G 3 i S X.` 7 3 0 J ",
"! v +.` 5 , * % @ O o # n +.=.q.e.s.e.e.v.a.G X.<.<.<.w.o.( ;.2.=.Y G Z n 8 q a q h 8 S @.;.4.s.d.e.a.k.d.c.j.G P P / ^ c ! w.c.",
"j 6 ;.l.L # 2 c u = 2 W d.C.N.v.d.s.a.4.;.+.h _ -.8.>.3.2.E P &.C a z F ! 2.c.v.d.,.R $.2.1.2.e.3.a.3.X.=.y.2.D B M N j g >.q.k.",
"; 6 ;.4.#.a Q 9.Y f X.N.k.s.4.f.s.4.$.@.$.P ; ! y.a.a.a.w.' j 5 l { d.B.N.v.l.l.k.<.j ^ ....;.<.<.3.q.X.=.;.` h M j k j 8 i E -."
};
