/* XPM */
static char *_05e02ae82a74a82c14c916144d831ad5xUX8JPGD8cTGopu[] = {
/* columns rows colors chars-per-pixel */
"64 64 164 2 ",
"   c #66CFF7",
".  c #63C7F7",
"X  c #5DBAF7",
"o  c #5DBBF7",
"O  c #5CB8F7",
"+  c #5AB5F7",
"@  c #5AB4F7",
"#  c #5CBAF7",
"$  c #5DBDF7",
"%  c #60C2F7",
"&  c #65C9F7",
"*  c #69CFF7",
"=  c #6BD3F7",
"-  c #68D1F7",
";  c #67CEF7",
":  c #68CFF7",
">  c #68CEF7",
",  c #67CFF7",
"<  c #64CAF7",
"1  c #63C6F7",
"2  c #65CDF7",
"3  c #66CCF7",
"4  c #60C0F7",
"5  c #5BB6F7",
"6  c #5DBCF7",
"7  c #59B6F7",
"8  c #56B1F7",
"9  c #57B2F7",
"0  c #54ADF7",
"q  c #51A9F7",
"w  c #53ACF7",
"e  c #57B1F7",
"r  c #58B3F7",
"t  c #5BB8F7",
"y  c #5EBDF7",
"u  c #62C5F7",
"i  c #64CBF7",
"p  c #66CEF7",
"a  c #6AD3F7",
"s  c #6CD4F7",
"d  c #6BD4F7",
"f  c #6CD7F7",
"g  c #6CD6F7",
"h  c #6BD5F7",
"j  c #6DD8F7",
"k  c #6AD6F7",
"l  c #69D4F7",
"z  c #68D2F7",
"x  c #61C4F7",
"c  c #5FBFF7",
"v  c #5CB9F7",
"b  c #65CBF7",
"n  c #69D2F7",
"m  c #66CDF7",
"M  c #67CDF7",
"N  c #67D0F7",
"B  c #64C9F7",
"V  c #5EBEF7",
"C  c #62C6F7",
"Z  c #66CBF7",
"A  c #5FBEF7",
"S  c #5BB7F7",
"D  c #5AB7F7",
"F  c #5CBBF7",
"G  c #58B4F7",
"H  c #59B4F7",
"J  c #56B0F7",
"K  c #59B3F7",
"L  c #5AB6F7",
"P  c #5EBFF7",
"I  c #61C3F7",
"U  c #62C4F7",
"Y  c #63C8F7",
"T  c #69D0F7",
"R  c #65CAF7",
"E  c #67D1F7",
"W  c #63C9F7",
"Q  c #69D1F7",
"!  c #65CCF7",
"~  c #60C1F7",
"^  c #60BFF7",
"/  c #60BEF7",
"(  c #56B2F7",
")  c #64C8F7",
"_  c #5CB7F7",
"`  c #57B0F7",
"'  c #56AEF7",
"]  c #59B2F7",
"[  c #5FC0F7",
"{  c #63C5F7",
"}  c #61C2F7",
"|  c #61C1F7",
" . c #5EBCF7",
".. c #55ADF7",
"X. c #67CCF7",
"o. c #66CAF7",
"O. c #64C7F7",
"+. c #68D0F7",
"@. c #56AFF7",
"#. c #62C2F7",
"$. c #5FC1F7",
"%. c #59B5F7",
"&. c #5AB3F7",
"*. c #62C3F7",
"=. c #5EBBF7",
"-. c #5FBDF7",
";. c #6AD4F7",
":. c #69D3F7",
">. c #5FBCF7",
",. c #63CAF7",
"<. c #6DD6F7",
"1. c #62C7F7",
"2. c #6DD5F7",
"3. c #65CEF7",
"4. c #68D3F7",
"5. c #6DD7F7",
"6. c #6AD5F7",
"7. c #67D2F7",
"8. c #5FC2F7",
"9. c #5EC0F7",
"0. c #5BB5F7",
"q. c #58AFF7",
"w. c #59B1F7",
"e. c #59B0F7",
"r. c #68CDF7",
"t. c #60C3F7",
"y. c #57AFF7",
"u. c #5AB2F7",
"i. c #58B0F7",
"p. c #65C8F7",
"a. c #58AEF7",
"s. c #5DB9F7",
"d. c #57ADF7",
"f. c #57AEF7",
"g. c #55ACF7",
"h. c #56ADF7",
"j. c #66D0F7",
"k. c #62C8F7",
"l. c #64CCF7",
"z. c #6BD6F7",
"x. c #6ED8F7",
"c. c #61C5F7",
"v. c #6EDAF7",
"b. c #6CD5F7",
"n. c #6FDAF7",
"m. c #6ED9F7",
"M. c #6FDBF7",
"N. c #58B1F7",
"B. c #53A9F7",
"V. c #4FA4F7",
"C. c #51A7F7",
"Z. c #54ACF7",
"A. c #53AAF7",
"S. c #4FA5F7",
"D. c #52AAF7",
"F. c #54AEF7",
"G. c #51AAF7",
"H. c #55AEF7",
"J. c #5BB9F7",
"K. c #5BBAF7",
"L. c #55B0F7",
"P. c #70DCF7",
"I. c #6FDCF7",
"U. c white",
/* pixels */
"  . X o O + @ + # $ % & * = - ; : > > ; : , < . . % 1 2 - : 3 . 4 o 5 o 6 7 8 9 0 q w e e r 9 t 6 y 4 u i p a s d f g h f j k l ",
"z < u x c o v + v # % b n a m < b 3 3 M : N M B u 6 V C b Z < u A S r D F v G H e J 9 K H H L t P I U Y 2 2 ; T Z R 3 m , p 2 E ",
"p W i i u A 6 # o o x b E Q b < B < < i 3 ! 3 u V o 6 c ~ c ^ / X G ( 9 G F S v L K @ 5 O F # o I . u B ! b B B R ) < < < Y < b ",
"U < 2 ! Y I c 6 y V I B m , 3 < B ) u C . . u c V o # V c o v X _ ` ' e e H + S 5 ] + o c [ $ 6 c C B M ! B I . Z R B B ) 1 Y B ",
"{ < 2 ! < Y u 4 ^ c I Z , p M b < B . u } | 4 A 6 F 6 c y  . .S K ..' e @ + @ S O O v y ~ } y $ y x 3 > 3 ) 4 U R X.o.O.u U u Y ",
"O.R ; ! i i Y } 4 V } b , : +., b < B ) { I c y $ P V c V  . .o 5 @.8 9 @ + 5 y c c I % ~ c 6 $ c { & Z < u ^ #.) R Z & 1 1 1 ) ",
"O.Z , m ! B U | 4 y | B > - z - M i . 1 1 U I c [ $.P y A  . . .S r %.H &.+ y I I x B < . % I u B 3 X.o.u 4  .c U O.< R ) O.O.) ",
"O.3 +.> ! Y *.4 c A I R : - +.+.; m 3 b B Y p ! C } ~ V $ y =.o K r # t 5 # 6 V x Y < < 3 2 p p ; M 3 X.1 A o -.^ } u 1 u { O.& ",
"O.M : > m W u ~ ^ A ~ B ; : : b B b ! i ! , ;.:.! U } } c o S O K K + t 6 4 % [ I 1 . ) p - +.- +.3 B ) { | A -.>.-.4 4 ~ } U B ",
"b > ; ; ! ,.,.Y ~ o y } ) O.Z m X.3 ! ! , :.<.g N . 4 4 ~ V # v O S + v I B i b . U u b - z N : - Z O.O.. u | y  . .c 4 c c } 1 ",
", +.2 i . 1.,.Y c y 6 c } } { M > > ; m , a 2.g - Y ~ ~ ~ 4 y y V 6 o x i i 2 +.p B Y - :.z   m N B { O.Z o.} y 6 y V 4 4 c U u ",
", E 3.< W . 1 ~ V c V 6 V c } Y ; > ; ; - l d l E b u I I } V c A o [ . i < m z z N ! ;.h E i Y & . . R > X.{ I c 4 4 4 4 I 1 i ",
"! 3.3.2 2 < u [ 6 $ V 6 6 V ~ u ! ; m N l ;.;.l z   C U U I $.I } y I . ! i ! 4.;.:.! N :.;.- m B 1 B 3 > Z < B Y Y . O.O.. < m ",
"! 2 p m 2 < u $.$ 6 $ $ 6 A ^ u < 2   4.;.g g ;.l p 1 u u I [ ~ } c . b p , N l l z b N z ;.;.- b u { R R < < B W < ! M > b . < ",
". < b b 2 p 2 < $.6 $ V #  .4 . b ! p z h 5.6.l 7.m B u U U [ [ ~ c i E z :.h g ;.z ! - z n ;.n b u } } { < C x } C ,.i ! < U Y ",
". Y W p 4.:.z E W c $ V v v ~ . B < b p :.;.:.z N m B 1 . U $.V V V . ; - :.h ;.l z m ; ; 3 ! < I 4 A  .4 1 ~ V c } Y ,.,.< 1 . ",
"B < p z 4.:.z z   . [ y y -.4 | I u 1 . < N z E , ! Y . Y [ 6 c V $ [ U B , z z - N ; 3 < B B I 6 6 -.y 6 c 6 6 6 A u Y ,.W 1 . ",
") <   N - z z z p 1 u I A 4 ~ 4 4 4 } . < p E   2 B U u c O o ~ P y y c 4 Y   -   p p ) *.U { V 6 X v A  .6 6 6 $ V I U C x I W ",
"< b 2 2 p ,   N ! . 1 { ~ A V c 4 4 } . < < < Y Y I c X S o y } [ 6 y y >.I ! p i i ! U } 4 c o 6 # v X S + S 6 V [ I C u U B B ",
"3 m p ! ! ! < < B . U { U ^  .X A 4 | U { 1 u % $.[ [ 6 S # $ [ y v =. . .~ B ! B . u A A c o v # + &.@ @ @ @ S y | U U u Y < O.",
"b b ! i < i < < < ) *.1 . ~ A o # O  .~ } ~ 8.P [ [ y o S + # 9.[ 9.y 6 6 V I B u U u 4 ^ ^ v v t @ &.&.@ @ @ @ t  .4 4 u < B O.",
"B B < < < i < i B ) ) < . 4 c V 6 t 5 o 6 $ V 9.[ y o v O S o $ c ~ P V c [ ~ u . C *.A  .o S &.@ @ 0.5 K &.&.@ S o c } { O.1 } ",
"u ) < < < b < < ) R m R . 4 c y 6 6 # # o 6 6 $ $ $ V 6 6 6 # 6 [ $.$.~ *.~ ~ ~ 1 ) I c O @ &.q.w.@ v S &.&.e.+ v # A ~ } { } 4 ",
"1 ) B < b ; m < < p r.o.1 4 A c 6 $ y F O 6 $ 6 6 P $.$ 6 6 O v P t.U U U } ~ 4 } *.4 ^ y O @ y.y.&.&.u.&.] i.@ @ + # y ~ } [ 4 ",
"4 U O.< m M m ! ! N > p.~ A y ^ c ^ c o # $ 6 6 6 V $.$ 6 6 o # 6 x Y C u I 4 4 ^ A A / ^ X @ &.&.w.w.w.] ] ] e.] @ + # V V o y ",
"6 V } . b 3 M > m - M *.4 V y 4 } u I V P [ V 6 6 o 6 6 6 6 6 6 c u W C x 4 V y y  .X X o S @ &.&.@ @ @ ] q.a.a.e.+ s.o  .y # 6 ",
"6 F o ^ } O.! 3 ) O.U ^ ^ y y ~ 1 < 1 } *.I P y 6 t o 6 6 6 6 6 ~ B < 1 } [ $ y 6 t 5 @ ] ] e.e.w.&.@ @ &.' d.f.K X y y V c V V ",
"V o 5 + O A I *.A =.~ 4 | c c u < B U I 1 U y 6 6 S v 6 6 6 y [ Y ! ! Y I V V V $ # @ &.q.w.w.a.a.] @ @ ] g.h.e S o V I } | I ~ ",
"I A # 5 + v A ^ y  .U . { U { < i u ~ u U 4 V 6 6 S 5 v y 4 c U ! 2 ! B I [ P c V  .v 5 &.&.] a.a.] @ @ &.f.K S F y u B 1 U ) O.",
"O.u V  .t t  .4 | ^ 4 u . 1 . ) ) 1 u C ~ % c 6 # 0.+ # y } u B i < < 1 } ~ P V y 6 y  .5 @ ] a.q.&.@ @ &.u.o 6 -.U < B { I 1 O.",
"b ! x ^ v 5 o U } 4 4 } C W 1 . ) < < u I I 4 6 o S S o 6 4 Y , N p < U ~ 4 y o o o $ $ o 5 &.q.w.&.@ @ ] s.~ ~ } Y < O.U u O.) ",
"2 p . } y # A | } } *.U Y i < i < b < C U *.V 6 o # y c c } < 2 z z < C % y 6 t O + O 6 y o + w.e.@ 5 + 5 A 4 I *.Y < ) 1 . i i ",
"2 p i Y | V c } u ) { C Y . . u b p B 1 U } y 6 v 6 I 1 *.} B ! , m Y u I V 6 S + @ @ S 6 # + ] w.@ S X 6 4 ~ C U 1 Y O.O.< i 2 ",
"  3.! Y [ ~ % . i < Y Y x ~ U u < 2 B B . ~ y 6 o 6 ~ U | } 1 . B < C } I 4 y v @ H H 0.# 5 @ 5 + @ v c V 4 | u I ~ I U u < 2 2 ",
"3.2 3.< % x 1 ! i < < 1 % $.% Y 2   ! B i } o F 6 $ ^ ^ ^ c ^ ^ ~ I } ~ ~ | V O @ @ H @ @ ] ] @ + + o A c U *.U U ~ ~ } u W 2 j.",
"i 2 2 i C . b 2 i < < u I $.$.k.2 N E ! < U y 6 6 o y ^ 4 4 4 ^ ^ ^ A y V c y t @ @ &.&.@ 5 S o  .X  .c U 1 O.O.) 1 } I B < i ! ",
"! 2 l.. u < 2 2 b ! < C U 8.8.. i !   2 1 1 ~ V $ v o ~ } { U } A 6 6 v 0.S t + @ ] ] @ S 6 # 6 c 4 | } } } ) . ) B B B < i ! b ",
"2   < u . 3.N - - E 2 Y u x t.Y i i B B u *.I $.V o 6 ~ 1 U } ~ y 5 t O + + @ ] K ] ] e.] O o 6 c *.O.{ 4 4 U u O.R < < < < b p ",
"< ! < Y Y < , :.l 6.:.  i . U . 3.2 < B . 1 1 u 4 V c } { } 4 4 / X v 5 5 5 @ @ ] &.] e.&.@ 0.O c *.O.) | 4 4 u B B B < B B B < ",
"B < Y u Y Y i   a ;.h 6.7.2 B <   ! < . Y i i < ) . ) . ~ ~ 4 ^ ^ o v O S + @ &.] @ @ &.@ @ @ _ } ) Z Z U ^ 4 4 U { *.. ) b ! b ",
"u x } U W < W l.+.;.l :.E 3.i ! i < B ) < < i i B B < { y o A A  .O @ @ @ @ @ e.] @ + S S v #  .U R > M ) ~ ~ 4 4 4 4 *.*.U . . ",
"u [ y c } U | U B n l :.N 3.! < . u 1 B ! < < i < B . ~ 6 v v 5 @ + &.@ @ @ @ ] &.@ 5 6  .y c 4 1 < ; ; B *.{ U | 4 4 4 4 | { } ",
"} y o 6 A 4 ^ ^ 4 B - l z   ! u [ c I < b < < i b . U c X + @ @ K @ @ @ S 5 + @ + 5 S A ^ 4 I } . B ! , b U 1 B u } } ~ 4 I *.} ",
"}  .o  .y ^ ^ ^ 4 U . m m 2 < u 4 ^ ~ 1 B < ) u I V V c c o # v S + 0.S 5 # # 5 v # v 4 U u . U u ) b +.! u . < Y 1 { | 4 } u . ",
"^  .# o v -.^ ^ | U U u B < u 1 1 } U ) B ) } 4 4 } V y y o O # 6 # v o # O o o 6 V y U b i . u U . b p ! B B < < U 4 c 4 } O.. ",
" .6 =.# + 0.o ^ ~ } | 4 1 1 } { { u 1 O.1 U } I 1 u 4 6 v t 5 + O y [ V 6 $ V c c | C 2 - , Y C U u b b < <   2 W } y y } Y B U ",
"6 6  .=.O K 5 -.c A 4 ^ 4 ~ } { *.u ) ) I *.u . B } A 6 o v # O # 4 *.x [ [ [ | } U . m E N < Y Y Y B . B 2 7.N ! . } I Y i < I ",
" . . .6 v @ @ S  .y y o y ^ ^ U 1 U B b B u 1 W C ~ A 6 6 6 V y 6 4 U Y u c V ~ I Y W C b ! < W . C . B 2 E 7.E j.! 1 U . i < } ",
"A y y 6 O @ @ @ t 6 =.o y ^ -.c 4 } ) < Y I Y ,.1.| 4 c y V 4 V y 4 I W . 9.$ c C < 1.I u I I u u 1 !   z 7.E z z   . } I 1 1 } ",
"V c y 6 t 0.# S t o =.v o A y y y ~ ~ } u U B < Y } I ~ V A 4 4 ~ | I 1 C y P 1.W . % $.u I } U 1 .   4.l l z.6.E 3.2 < 1 Y U } ",
"y 4 c 6 S # 6 o o v 0.&.0.5 v 6 c [ c ~ U u Y < B u U I 4 c 4 4 } u Y Y U y V $.~ [ V 4 U U | [ I I W E l f h E 2 < Y . 1 x % I ",
"[ V V v S 6 o S # O @ 5 t + 5 6 [ 4 4 } U U 1 U u u U U U U I u C Y < Y U y P 4 ~ V V | 4 % ~ A y c } < E 6.  l.C % *.U u [ o V ",
"y V y 6 O t 5 S 6 S S o 6 S S 6 ~ U *.~ c V C B . < 2 2 ! 3 < i ! 2 2 . I y 4 ~ ~ c } | c 6 V 4 V V [ u p N ! . ~ $.} *.} c 6 6 ",
"6 V I ~ y 5 + # o # 6 V V o o 6 ~ U I c $ c 1 ; ; , 4.:., N , 2 ! i i W x c 4 [ % } } 4 A # o o o v v V u u 1.I ~ [ V V y $ # # ",
"$ $ x 1 U y o y A y c ^ V y $ c } { I y 6 c u ! , z ;.x.g :.z z - p < W C I ~ ~ I I ~ c 6 v # 5 5 + @ O A P P y y o 5 5 o 6 O O ",
"6 $ c.W W [ $ c 4 c y o y $ $ V } Y I $ $ % *.1 m z ;.x.v.<.b.g j g N C C Y I 4 ^ c y 6 O 5 5 @ @ S + t 4 } V V y 6 5 + v # S v ",
"6 y c.k.C c 6 V U I o o V [ $.[ [ u 1 [ P ~ ~ { m - 4.f n.m.x.x.g ;.! ~ I U A y 6 6 6 t @ w.h.i.] 5 v 6 ~ I y c } } ~ y 6 o # # ",
"6 V $.[ A V o ^ *.~ $ 6 V c $.~ % U B U P c 4 . 2 !   <.M.M.j h :.p B 4 [ 4 6 v v 6 6 + N.B.V.B.` o o 6 y V V ~ . . U ~ V P V # ",
"$ y $.V V y v 6 4 y V V y P ~ } } % u C c 6 y I i b   a 5.5.;.:.:., < I 6 $ F O # S 5 i.g.C.V.C.%.6 # 6 6 V [ ~ C U % c V V $ 6 ",
"$ V 4 y o 6 v 5 o 6 y [ y $ [ U I % Y . } 4 ~ } . m E z ;.a n - - ! . ~ D t S @ %.r K @.Z.A.S.D.F 6 O # 6 [ i B U } c P 4 V V P ",
"y 6 y o S S v t v 6 y 4 4 c t.u I u W Y U *.U Y < B N z :.; b ! ! Y c o L v %.e 8 9 H G F.G.D.@.F 6 v # c b z 4.m Y . Y Y . u x ",
"I y 6 v 5 @ 5 O c ~ V ~ U 1.. ) < ! 2 B C U *.U B 1 < - n ! B < B } y o F # %.8 9 8 ( %.8 w Z.G t S 6 ~ < z 4.l 4.- :.z - E b B ",
"I 6 O S 5 @ @ + c Y U *.u B Z > n 4.z - p B u U W C 1 +.n m b B U A 6 6 o H J ( r 8 G %.( 8 H.J.7 t $ C p 4.:.;.d 5.m.m.5.5.;.j.",
"u V S # 5 @ @ 5 V U Y u 1 b M +.a :.z - - 3 u U . Y ) N :., m 1 ^ $ 6 6 K.8 0 H.0 L.( G r J H.L t 6 $ x i +.s b.<.n.P.I.n.M.6.E "
};
